<svg xmlns="http://www.w3.org/2000/svg" viewBox="0 0 512 512">
  <defs>
    <linearGradient id="grad1" x1="0%" y1="0%" x2="100%" y2="100%">
      <stop offset="0%" style="stop-color:#0d6efd;stop-opacity:1" />
      <stop offset="100%" style="stop-color:#0b5ed7;stop-opacity:1" />
    </linearGradient>
  </defs>
  <!-- Background circle -->
  <circle cx="256" cy="256" r="240" fill="url(#grad1)"/>
  <!-- Graduation cap -->
  <g fill="#ffffff">
    <!-- Cap top (diamond shape) -->
    <polygon points="256,120 380,180 256,240 132,180"/>
    <!-- Cap base -->
    <path d="M160,200 v60 c0,30 43,60 96,60 s96-30 96-60 v-60 l-96,40 z"/>
    <!-- Tassel -->
    <circle cx="380" cy="180" r="12"/>
    <rect x="376" y="180" width="8" height="80" rx="4"/>
    <circle cx="380" cy="270" r="16"/>
    <!-- Book below -->
    <path d="M150,340 h212 c10,0 18,8 18,18 v80 c0,10-8,18-18,18 H150 c-10,0-18-8-18-18 v-80 c0-10,8-18,18-18 z"/>
    <line x1="256" y1="340" x2="256" y2="456" stroke="#0d6efd" stroke-width="4"/>
    <path d="M170,370 h60 M170,395 h50 M170,420 h55" stroke="#0d6efd" stroke-width="6" stroke-linecap="round"/>
    <path d="M282,370 h60 M282,395 h50 M282,420 h55" stroke="#0d6efd" stroke-width="6" stroke-linecap="round"/>
  </g>
</svg>
